<?xml version="1.0" standalone="no"?>
<!DOCTYPE svg PUBLIC "-//W3C//DTD SVG 20010904//EN"
 "http://www.w3.org/TR/2001/REC-SVG-20010904/DTD/svg10.dtd">
<svg version="1.0" xmlns="http://www.w3.org/2000/svg"
 width="525.000000pt" height="525.000000pt" viewBox="0 0 525.000000 525.000000"
 preserveAspectRatio="xMidYMid meet">

<g transform="translate(0.000000,525.000000) scale(0.100000,-0.100000)"
fill="#000000" stroke="none">
<path d="M0 3355 c0 -1658 2 -1895 15 -1895 8 0 19 9 25 19 6 12 25 22 52 26
24 3 57 13 75 21 17 8 58 17 90 19 74 7 136 25 147 43 7 12 10 12 18 1 6 -9 8
4 4 41 -3 30 -6 65 -6 78 0 12 -6 22 -14 22 -7 0 -27 7 -42 15 -28 15 -29 15
-6 21 26 7 32 54 7 54 -9 0 -33 9 -54 19 -33 17 -41 28 -58 83 -12 35 -23 93
-26 129 -3 36 -11 78 -18 92 -9 19 -9 33 -1 54 6 15 14 56 17 90 4 34 13 67
21 74 8 6 14 19 14 29 0 9 9 29 20 43 11 14 20 30 20 36 0 22 96 109 128 116
41 8 69 -1 77 -26 7 -22 29 -25 45 -6 5 6 33 48 62 92 49 73 90 111 109 99 5
-2 -6 -30 -23 -62 -76 -138 -116 -225 -142 -308 -16 -49 -35 -106 -42 -127 -8
-20 -14 -50 -14 -66 0 -16 -7 -48 -16 -72 -13 -35 -16 -85 -17 -249 0 -267 4
-283 99 -371 116 -109 143 -122 254 -127 141 -5 137 -12 110 178 -18 128 -21
184 -17 320 3 98 12 196 22 240 29 131 57 235 66 244 5 6 9 16 9 23 0 14 24
68 107 243 61 128 83 179 83 196 0 8 23 46 51 85 36 51 48 74 40 82 -16 16
-13 58 6 79 10 11 12 18 4 18 -21 0 -68 -29 -74 -45 -4 -9 -19 -15 -36 -15
-16 0 -31 -6 -34 -13 -6 -15 29 -17 51 -4 13 9 17 1 26 -49 5 -29 2 -32 -25
-38 -18 -3 -34 -15 -41 -32 -11 -23 -16 -25 -47 -19 -48 9 -59 17 -35 26 17 7
17 8 2 8 -10 1 -18 5 -18 10 0 5 8 12 18 14 14 4 14 5 -3 6 -15 1 -17 4 -7 10
7 4 15 14 16 22 9 41 30 79 47 84 10 4 19 10 19 15 0 4 6 8 13 7 33 -1 47 4
47 18 0 8 5 15 10 15 6 0 10 6 10 14 0 7 9 25 20 39 11 14 20 30 20 37 0 15
25 40 40 40 6 0 15 11 20 25 5 14 13 25 18 25 23 0 17 -15 -19 -53 -41 -44
-48 -67 -25 -86 17 -14 40 5 69 58 9 18 26 35 37 38 11 3 20 9 20 14 0 5 7 6
15 3 8 -4 15 -2 15 4 0 5 9 12 20 15 13 3 18 11 15 26 -2 12 0 22 6 22 5 1 14
3 19 4 6 1 13 3 17 4 4 0 2 6 -5 13 -9 9 -16 8 -29 -4 -10 -8 -30 -18 -45 -20
-39 -7 -36 17 5 42 17 10 37 24 44 29 9 8 16 5 27 -10 8 -12 19 -18 26 -14 8
5 8 10 0 20 -15 18 -5 35 20 35 21 0 34 -26 18 -36 -7 -4 -3 -13 12 -24 20
-15 21 -18 6 -33 -9 -8 -16 -21 -16 -27 0 -6 -4 -9 -9 -6 -4 3 -17 -1 -27 -9
-10 -8 -29 -15 -41 -15 -18 0 -23 -6 -23 -25 0 -21 -5 -25 -29 -25 -22 0 -31
-6 -37 -22 -6 -22 -20 -40 -56 -76 -17 -16 -25 -62 -12 -62 10 0 54 50 54 61
0 5 4 9 9 9 5 0 13 9 16 20 3 11 13 20 21 20 8 0 14 5 14 10 0 6 8 14 18 17 9
4 22 11 27 15 18 14 61 52 98 86 20 17 40 32 44 32 5 0 14 10 22 21 12 20 10
24 -16 45 -15 13 -34 23 -40 24 -7 0 -13 5 -13 11 0 7 -24 33 -52 60 -127 117
-132 125 -122 192 10 61 18 72 68 91 43 17 46 17 88 -5 41 -20 79 -51 116 -93
48 -54 71 -74 91 -81 11 -3 21 -13 21 -21 0 -8 4 -14 8 -14 5 0 24 -13 42 -30
31 -28 80 -41 80 -22 0 15 -33 40 -61 47 -21 5 -26 13 -27 37 -1 28 0 29 17
14 10 -9 22 -16 27 -16 6 0 20 -13 32 -30 22 -29 44 -36 76 -24 9 3 16 12 16
20 0 10 13 14 45 14 25 0 45 4 45 9 0 5 21 12 46 16 25 3 48 13 51 21 3 9 20
14 47 14 23 0 52 8 66 17 17 12 50 18 115 21 111 4 136 13 70 23 -27 4 -51 13
-53 19 -2 5 -18 10 -35 10 -67 1 0 18 96 24 l97 7 0 -25 c0 -25 2 -26 63 -26
70 1 88 15 101 82 4 20 10 38 14 40 16 7 52 89 52 117 0 18 10 41 25 58 14 15
34 39 46 52 18 21 27 23 79 19 85 -6 100 -23 100 -113 0 -47 -5 -78 -15 -91
-8 -10 -15 -27 -15 -37 0 -11 -9 -30 -20 -44 -11 -14 -20 -38 -20 -54 0 -18
-7 -32 -20 -39 -25 -14 -26 -30 -1 -30 32 0 51 11 51 30 0 22 18 36 31 23 4
-4 9 -22 11 -40 2 -28 5 -31 46 -37 71 -10 85 -8 78 10 -4 11 0 14 17 12 17
-2 21 1 19 16 -3 14 1 17 13 12 9 -3 25 -6 34 -6 14 0 17 -6 13 -25 -3 -20
-10 -25 -36 -25 -37 0 -64 -14 -47 -24 6 -4 33 -6 60 -5 48 2 49 3 40 27 -9
22 -8 23 6 12 20 -17 79 -15 130 3 28 11 45 12 59 5 23 -12 11 -25 -40 -43
-22 -8 -38 -19 -37 -24 4 -16 -20 -13 -43 4 -24 18 -48 19 -63 1 -13 -15 4
-26 39 -26 9 0 23 -7 30 -15 7 -8 23 -15 36 -15 13 0 27 -6 31 -14 13 -22 49
-28 66 -11 9 8 22 15 31 15 8 0 18 5 22 11 3 6 17 9 30 6 13 -2 24 0 24 4 0 5
3 9 8 9 12 0 72 -57 72 -69 0 -5 13 -12 30 -16 26 -6 29 -10 24 -33 -4 -15
-10 -31 -14 -35 -13 -14 -44 -3 -55 20 -21 41 -37 52 -91 63 -55 12 -99 7 -56
-5 12 -4 22 -13 22 -21 0 -7 11 -16 24 -20 14 -3 27 -12 30 -20 3 -8 15 -14
26 -14 11 0 28 -9 37 -20 10 -11 23 -20 29 -20 7 0 14 -7 18 -15 3 -8 12 -15
21 -15 8 0 15 -4 15 -8 0 -5 22 -24 50 -43 27 -19 50 -37 50 -41 0 -5 5 -8 11
-8 5 0 50 -40 100 -90 49 -49 93 -90 98 -90 5 0 10 -18 9 -39 0 -32 8 -50 48
-100 58 -70 177 -304 229 -445 53 -143 75 -252 87 -413 8 -121 8 -146 -5 -172
-12 -24 -13 -39 -5 -71 8 -31 7 -53 -4 -94 l-16 -53 72 -18 c100 -27 189 -22
241 13 46 30 105 87 105 102 0 5 7 13 15 18 30 16 59 257 49 402 -17 258 -172
628 -337 805 -26 28 -47 53 -47 57 0 15 49 20 65 6 68 -56 134 -139 150 -189
6 -19 32 -32 46 -23 5 3 16 20 23 39 l14 34 49 -14 c26 -7 60 -19 75 -27 33
-18 97 -88 98 -106 0 -8 9 -25 20 -39 11 -14 20 -34 20 -44 0 -10 4 -20 9 -23
4 -3 11 -26 14 -51 4 -25 14 -59 22 -76 22 -42 16 -235 -9 -298 -19 -49 -58
-91 -84 -91 -36 -1 -52 -25 -52 -79 0 -29 -5 -62 -12 -74 -21 -40 -27 -86 -12
-98 7 -6 18 -8 23 -4 7 4 10 -9 8 -37 -2 -36 -6 -44 -24 -46 -18 -3 -23 3 -29
33 -9 52 -29 38 -29 -21 0 -27 -3 -54 -7 -60 -17 -26 26 -24 47 2 17 21 59 22
63 2 2 -13 -3 -18 -17 -18 -12 0 -21 -6 -21 -15 0 -8 5 -15 10 -15 6 0 10 -16
10 -36 0 -27 7 -41 26 -56 16 -14 24 -27 21 -39 -3 -11 -1 -19 4 -19 21 0 7
-22 -21 -31 -16 -6 -30 -15 -30 -20 0 -4 -7 -6 -15 -3 -11 4 -13 2 -10 -9 4
-8 -1 -17 -9 -20 -26 -10 -18 -27 13 -27 22 0 38 -10 64 -40 19 -22 38 -40 44
-40 5 0 26 -15 45 -34 19 -18 44 -39 56 -45 l22 -12 0 1991 0 1990 -2625 0
-2625 0 0 -1895z m2747 415 c-12 -44 -22 -50 -32 -20 -9 29 3 60 24 60 16 0
17 -4 8 -40z m453 -61 c0 -24 -4 -38 -10 -34 -5 3 -10 22 -10 41 0 19 5 34 10
34 6 0 10 -18 10 -41z m-1228 -80 c16 -25 57 -19 59 9 0 10 3 12 6 5 3 -9 10
-10 24 -3 10 6 19 7 19 2 0 -5 11 -14 25 -20 31 -14 31 -23 4 -40 -17 -11 -27
-11 -52 -1 -27 11 -32 10 -48 -10 l-18 -22 -22 30 c-12 16 -30 32 -40 34 -13
3 -17 11 -13 21 9 23 39 20 56 -5z m238 6 c11 -13 7 -15 -27 -15 -21 0 -48 7
-59 15 -18 13 -16 14 27 15 30 0 51 -6 59 -15z m1447 -41 c-3 -3 -12 -4 -19
-1 -8 3 -5 6 6 6 11 1 17 -2 13 -5z m-81 -24 c35 0 30 -14 -12 -34 -27 -13
-40 -14 -48 -6 -8 8 -6 15 7 25 10 7 14 15 10 17 -4 3 -2 3 5 1 8 -1 25 -3 38
-3z m267 -100 c-3 -11 -9 -17 -15 -14 -5 3 -4 12 3 20 16 19 18 18 12 -6z
m-2318 -10 c18 -7 18 -8 -7 -15 -29 -7 -52 1 -43 16 7 11 23 11 50 -1z m2397
-67 c22 -19 24 -43 4 -43 -21 0 -31 -21 -16 -30 17 -10 40 -2 40 14 0 21 43
36 58 20 12 -13 18 -33 6 -21 -10 10 -34 -20 -34 -42 0 -11 -3 -22 -7 -24 -18
-10 -63 -17 -62 -10 4 25 -16 51 -42 57 -22 4 -29 11 -29 30 0 19 4 23 20 19
16 -4 20 0 20 21 0 30 15 33 42 9z m-2547 -23 c3 -5 1 -10 -4 -10 -6 0 -11 5
-11 10 0 6 2 10 4 10 3 0 8 -4 11 -10z m2725 -74 c5 -13 18 -27 29 -31 17 -5
21 -15 21 -51 0 -52 -23 -61 -43 -16 -18 42 -40 54 -51 27 -3 -9 3 -23 13 -32
11 -9 17 -22 14 -29 -3 -9 2 -11 16 -7 14 3 21 1 21 -8 1 -8 12 -27 25 -44
l24 -29 36 39 35 40 0 -27 c0 -31 -28 -64 -64 -78 -21 -7 -23 -6 -19 11 4 14
0 19 -16 19 -12 0 -24 7 -27 15 -4 8 -13 15 -20 15 -16 0 -37 46 -28 61 3 5
-2 9 -10 9 -23 0 -87 41 -83 53 3 11 21 22 50 31 9 3 22 17 27 31 12 32 38 32
50 1z m-2844 -43 c-10 -10 -19 5 -10 18 6 11 8 11 12 0 2 -7 1 -15 -2 -18z
m2967 -90 c-7 -2 -19 -2 -25 0 -7 3 -2 5 12 5 14 0 19 -2 13 -5z m-48 -23 c3
-5 -1 -10 -10 -10 -9 0 -13 5 -10 10 3 6 8 10 10 10 2 0 7 -4 10 -10z m-3375
-310 c0 -5 -2 -10 -4 -10 -3 0 -8 5 -11 10 -3 6 -1 10 4 10 6 0 11 -4 11 -10z
m4304 -859 c3 -4 -1 -17 -9 -27 -14 -18 -14 -18 -15 9 0 26 13 36 24 18z
m-4716 -366 c-3 -12 -29 -8 -43 7 -7 6 -1 8 18 6 15 -2 26 -7 25 -13z"/>
<path d="M1323 3024 c-27 -29 -29 -44 -8 -44 8 0 15 6 15 14 0 8 7 16 15 20
15 5 22 37 8 35 -5 -1 -18 -12 -30 -25z"/>
<path d="M3235 2671 c-29 -12 -85 -71 -99 -106 -26 -60 -28 -105 -9 -157 39
-110 151 -175 256 -149 107 27 166 96 169 197 1 61 -7 104 -21 104 -4 0 -13
-17 -19 -39 -21 -70 -82 -74 -179 -13 -42 27 -54 40 -59 68 -4 22 -2 45 6 59
20 38 0 54 -45 36z"/>
<path d="M1887 2322 c-67 -45 -98 -134 -82 -237 13 -88 130 -174 225 -166 19
1 39 7 45 12 5 5 19 9 30 9 52 0 135 123 135 199 -1 40 -44 138 -55 122 -3 -6
-4 -15 -1 -19 10 -17 -15 -82 -37 -97 -26 -17 -90 -10 -108 11 -6 8 -17 14
-24 14 -8 0 -28 12 -45 27 -28 23 -31 31 -28 67 3 23 6 48 9 56 6 22 -32 23
-64 2z"/>
<path d="M3219 1788 c-94 -18 -181 -46 -274 -89 -33 -15 -71 -31 -85 -36 -14
-5 156 -10 405 -13 345 -4 435 -8 455 -19 16 -9 66 -16 145 -18 66 -2 119 -8
118 -13 -3 -10 73 -23 108 -18 39 5 27 22 -21 30 -71 12 -91 18 -86 26 2 4
-11 6 -30 4 -29 -4 -34 -1 -34 17 0 12 6 21 15 21 8 0 15 4 15 9 0 6 -10 7
-22 4 -13 -3 -30 -5 -38 -4 -30 1 -148 26 -155 32 -3 4 11 15 32 25 37 17 37
18 13 24 -14 3 -43 2 -64 -2 -26 -6 -49 -5 -68 3 -20 8 -44 8 -91 0 -96 -17
-157 -14 -173 7 -13 18 -96 24 -165 10z"/>
<path d="M4910 1685 c0 -8 5 -15 10 -15 6 0 10 7 10 15 0 8 -4 15 -10 15 -5 0
-10 -7 -10 -15z"/>
<path d="M4914 1644 c-19 -28 -8 -49 19 -38 28 11 34 64 7 64 -5 0 -17 -11
-26 -26z"/>
<path d="M4428 1627 c-7 -8 -45 -29 -84 -47 -46 -22 -70 -39 -67 -47 6 -15 43
-18 43 -4 0 5 21 20 48 33 73 38 112 62 112 71 0 12 -38 8 -52 -6z"/>
<path d="M4183 1576 c-10 -11 -9 -15 2 -20 8 -3 22 -3 30 0 12 5 13 10 4 20
-14 17 -21 17 -36 0z"/>
<path d="M4460 1459 c0 -5 5 -7 10 -4 6 3 10 8 10 11 0 2 -4 4 -10 4 -5 0 -10
-5 -10 -11z"/>
<path d="M4560 1390 c0 -5 5 -10 10 -10 6 0 10 5 10 10 0 6 -4 10 -10 10 -5 0
-10 -4 -10 -10z"/>
<path d="M983 1383 c7 -7 139 -4 146 3 2 2 -31 4 -74 4 -43 0 -75 -3 -72 -7z"/>
<path d="M1216 1357 c-18 -13 -17 -14 15 -13 19 1 36 6 39 11 8 16 -33 17 -54
2z"/>
<path d="M4590 1360 c0 -5 7 -10 15 -10 8 0 15 5 15 10 0 6 -7 10 -15 10 -8 0
-15 -4 -15 -10z"/>
<path d="M1168 1323 c6 -2 18 -2 25 0 6 3 1 5 -13 5 -14 0 -19 -2 -12 -5z"/>
<path d="M951 1154 c0 -11 3 -14 6 -6 3 7 2 16 -1 19 -3 4 -6 -2 -5 -13z"/>
<path d="M580 799 c0 -11 5 -17 10 -14 6 3 10 13 10 21 0 8 -4 14 -10 14 -5 0
-10 -9 -10 -21z"/>
<path d="M1110 796 c0 -8 5 -18 10 -21 6 -3 10 3 10 14 0 12 -4 21 -10 21 -5
0 -10 -6 -10 -14z"/>
<path d="M552 745 c0 -16 2 -22 5 -12 2 9 2 23 0 30 -3 6 -5 -1 -5 -18z"/>
<path d="M1145 718 c4 -13 13 -48 21 -78 8 -30 21 -66 28 -80 8 -14 17 -43 21
-65 4 -22 13 -47 20 -55 7 -8 15 -35 19 -58 4 -24 25 -81 47 -125 47 -97 58
-147 35 -166 -8 -7 -42 -15 -76 -18 -33 -3 -60 -10 -60 -14 0 -5 -9 -9 -21 -9
-22 0 -49 -22 -49 -39 0 -8 89 -11 285 -11 157 0 285 4 285 8 0 4 -38 46 -85
92 -47 47 -102 108 -123 135 -20 28 -43 57 -52 65 -19 18 -134 178 -144 200
-3 8 -15 29 -26 45 -11 17 -27 45 -35 63 -8 17 -20 32 -25 32 -6 0 -10 6 -10
13 0 8 -9 24 -20 37 -11 13 -20 29 -20 37 0 7 -5 13 -11 13 -7 0 -9 -8 -4 -22z"/>
<path d="M510 383 c0 -16 5 -35 10 -43 7 -11 10 -4 10 28 0 23 -4 42 -10 42
-5 0 -10 -12 -10 -27z"/>
<path d="M552 265 c0 -16 2 -22 5 -12 2 9 2 23 0 30 -3 6 -5 -1 -5 -18z"/>
<path d="M580 191 c0 -12 5 -21 10 -21 6 0 10 6 10 14 0 8 -4 18 -10 21 -5 3
-10 -3 -10 -14z"/>
<path d="M620 124 c0 -7 14 -23 30 -36 17 -12 30 -28 30 -35 0 -7 4 -13 9 -13
5 0 13 -9 16 -20 5 -16 15 -20 48 -20 l42 1 -27 22 c-14 12 -42 33 -62 47 -19
14 -37 32 -39 41 -6 21 -47 32 -47 13z"/>
<path d="M3380 10 c0 -5 7 -10 15 -10 8 0 15 5 15 10 0 6 -7 10 -15 10 -8 0
-15 -4 -15 -10z"/>
</g>
</svg>
